<svg height="469pt" viewBox="-106 0 469 469.656" width="469pt" xmlns="http://www.w3.org/2000/svg">
    <g fill="#ffd782">
        <path d="m120.328125 85.65625h16v24h-16zm0 0" />
        <path d="m73.671875 122.09375 13.3125-8.875 16.003906 24-13.3125 8.875zm0 0" />
        <path d="m26.675781 123.3125 11.3125-11.3125 24.003907 24-11.316407 11.3125zm0 0" />
        <path d="m29.800781 189.246094 5.0625-15.179688 23.996094 8-5.058594 15.179688zm0 0" />
        <path d="m.328125 205.65625h24v16h-24zm0 0" />
        <path d="m153.667969 137.21875 16.003906-24 13.3125 8.875-16.003906 24zm0 0" />
        <path d="m194.667969 136 24.003906-24 11.3125 11.3125-24 24.003906zm0 0" />
        <path
            d="m197.839844 182.265625 24.007812-7.996094 5.054688 15.1875-24.003906 7.992188zm0 0" />
        <path d="m120.328125 317.65625h16v24h-16zm0 0" />
        <path d="m73.667969 305.222656 16.003906-24.003906 13.3125 8.875-16 24.003906zm0 0" />
        <path d="m26.667969 303.996094 24.003906-24 11.3125 11.3125-24 24zm0 0" />
        <path
            d="m29.761719 238.214844 24.003906-7.992188 5.058594 15.183594-24.007813 7.996094zm0 0" />
        <path d="m153.667969 290.09375 13.3125-8.875 16 24.003906-13.3125 8.875zm0 0" />
        <path d="m194.671875 291.3125 11.3125-11.3125 24.003906 24-11.316406 11.3125zm0 0" />
        <path d="m197.796875 245.25 5.0625-15.179688 23.996094 8-5.058594 15.179688zm0 0" />
        <path d="m232.328125 205.65625h24v16h-24zm0 0" />
    </g>
    <path d="m120.328125 341.65625h16v40h-16zm0 0" fill="#87cee9" />
    <path d="m32.726562 301.65625h16v48h-16zm0 0" fill="#87cee9" />
    <path d="m207.929688 301.65625h16v48h-16zm0 0" fill="#87cee9" />
    <path
        d="m256.328125 213.65625c0 70.691406-57.308594 128-128 128s-128-57.308594-128-128 57.308594-128 128-128 128 57.308594 128 128zm0 0"
        fill="#8d28ad" />
    <path
        d="m208.328125 213.65625c0 44.183594-35.816406 80-80 80s-80-35.816406-80-80 35.816406-80 80-80 80 35.816406 80 80zm0 0"
        fill="#d0bafa" />
    <path d="m208.328125 213.65625s-16 48-80 48-80-48-80-48 32-48 80-48 80 48 80 48zm0 0"
        fill="#f4f4e6" />
    <path
        d="m176.328125 213.65625c0 26.507812-21.492187 48-48 48-26.511719 0-48-21.492188-48-48 0-26.511719 21.488281-48 48-48 26.507813 0 48 21.488281 48 48zm0 0"
        fill="#d9176c" />
    <path
        d="m144.328125 197.65625c0 8.835938-7.164063 16-16 16s-16-7.164062-16-16 7.164063-16 16-16 16 7.164062 16 16zm0 0"
        fill="#efb4d0" />
    <path
        d="m104.328125 381.65625h48c3.058594 36.296875-15.824219 70.921875-48 88 0 0 16-56 0-88zm0 0"
        fill="#d3843d" />
    <path
        d="m128.328125 93.65625c-2.121094 0-4.15625-.84375-5.65625-2.34375l-80-80 11.3125-11.3125 74.34375 74.34375 74.34375-74.34375 11.3125 11.3125-80 80c-1.5 1.5-3.535156 2.34375-5.65625 2.34375zm0 0"
        fill="#7d8d9c" />
    <path d="m64.71875 349.65625h-48s-16.390625 64 39.609375 96c0 0-15.609375-64 8.390625-96zm0 0"
        fill="#d3843d" />
    <path
        d="m191.9375 349.65625h48c3.324219 36.25-15.449219 70.949219-47.609375 88 0 0 23.609375-56-.390625-88zm0 0"
        fill="#d3843d" />
</svg>